<svg t="1657096925617" class="icon" viewBox="0 0 1238 1024" version="1.1" xmlns="http://www.w3.org/2000/svg" p-id="5154" width="200" height="200"><path d="M53.02729 1023.998808a55.013124 55.013124 0 0 1-19.860334-3.57486A53.225694 53.225694 0 0 1 0.000199 970.971717V93.740775A93.939379 93.939379 0 0 1 93.740974 0h1051.008862a93.939379 93.939379 0 0 1 93.740776 93.740775v647.645484a93.740775 93.740775 0 0 1-93.740776 93.740775H229.78426c-8.93715 10.525977-25.222624 31.577931-39.720667 50.643851C158.882869 926.087363 119.162201 976.135404 89.570304 1008.309145a50.048041 50.048041 0 0 1-36.543014 15.689663zM93.740974 59.581001A34.159774 34.159774 0 0 0 59.5812 93.740775V953.29602c26.215641-29.790501 57.197761-70.106978 83.016195-103.472339 52.828488-68.120945 56.999158-73.681838 75.270665-73.681838h926.881776a34.159774 34.159774 0 0 0 34.159774-34.159774V93.740775A34.159774 34.159774 0 0 0 1144.749836 59.581001z" fill="#3D3D3D" p-id="5155"></path><path d="M913.575551 255.602495H324.518052a39.720668 39.720668 0 0 1 0-79.441335H913.575551a39.720668 39.720668 0 0 1 0 79.441335zM913.575551 441.892426H324.518052a39.720668 39.720668 0 0 1 0-79.441335H913.575551a39.720668 39.720668 0 1 1 0 79.441335zM913.575551 627.983753H324.518052a39.720668 39.720668 0 0 1 0-79.441335H913.575551a39.720668 39.720668 0 0 1 0 79.441335z" fill="#F683A2" p-id="5156"></path></svg>